<svg width="27" height="27" viewBox="0 0 27 27" fill="none" xmlns="http://www.w3.org/2000/svg">
<path d="M22.7812 23.6251C22.6704 23.6253 22.5606 23.6035 22.4583 23.5611C22.3559 23.5186 22.2629 23.4563 22.1848 23.3778L3.62228 4.81528C3.47072 4.65576 3.38748 4.44335 3.3903 4.22333C3.39311 4.00331 3.48177 3.7931 3.63736 3.63751C3.79295 3.48192 4.00316 3.39327 4.22318 3.39045C4.44319 3.38763 4.65561 3.47088 4.81513 3.62243L23.3776 22.1849C23.4956 22.3029 23.5758 22.4532 23.6084 22.6169C23.6409 22.7805 23.6242 22.9501 23.5604 23.1042C23.4965 23.2583 23.3884 23.3901 23.2498 23.4828C23.1111 23.5755 22.948 23.625 22.7812 23.6251ZM13.482 20.2501C11.2941 20.2501 9.18417 19.6025 7.21085 18.3253C5.41419 17.1651 3.79683 15.5035 2.53331 13.5265V13.5223C3.58484 12.0156 4.73655 10.7416 5.9737 9.71431C5.98489 9.70495 5.99402 9.69337 6.00051 9.68031C6.007 9.66724 6.01071 9.65298 6.01141 9.6384C6.0121 9.62383 6.00976 9.60928 6.00454 9.59566C5.99933 9.58203 5.99134 9.56964 5.98109 9.55927L4.93062 8.51038C4.91195 8.49156 4.88688 8.48046 4.8604 8.47928C4.83392 8.47811 4.80796 8.48695 4.78771 8.50405C3.47357 9.61147 2.25382 10.9699 1.14482 12.5604C0.954015 12.8342 0.848934 13.1586 0.842924 13.4923C0.836915 13.826 0.930249 14.154 1.11107 14.4346C2.50378 16.6141 4.29622 18.4498 6.2938 19.7423C8.54292 21.1993 10.9634 21.9376 13.482 21.9376C14.8415 21.9334 16.1913 21.7094 17.4793 21.2742C17.4963 21.2684 17.5115 21.2584 17.5236 21.2451C17.5356 21.2319 17.5441 21.2157 17.5481 21.1982C17.5522 21.1808 17.5517 21.1625 17.5468 21.1453C17.5419 21.128 17.5326 21.1123 17.5199 21.0997L16.3819 19.9616C16.3557 19.9361 16.3233 19.9178 16.2879 19.9085C16.2525 19.8993 16.2153 19.8994 16.1799 19.9089C15.2986 20.1359 14.3921 20.2505 13.482 20.2501ZM25.8841 12.5825C24.4887 10.4246 22.6784 8.59159 20.6492 7.28114C18.4043 5.82989 15.9257 5.06261 13.482 5.06261C12.137 5.06499 10.8019 5.29371 9.53275 5.73919C9.51584 5.74507 9.5007 5.75516 9.48877 5.76851C9.47684 5.78186 9.4685 5.79803 9.46455 5.81549C9.46059 5.83295 9.46114 5.85113 9.46616 5.86832C9.47117 5.88551 9.48047 5.90114 9.4932 5.91374L10.6296 7.05016C10.6561 7.07617 10.6889 7.09474 10.7248 7.104C10.7608 7.11326 10.7985 7.11288 10.8342 7.1029C11.6975 6.86938 12.5878 6.75076 13.482 6.75011C15.6278 6.75011 17.7314 7.40559 19.7337 8.70128C21.5641 9.88253 23.2004 11.5426 24.4671 13.5001C24.4681 13.5013 24.4686 13.5028 24.4686 13.5043C24.4686 13.5059 24.4681 13.5073 24.4671 13.5085C23.5477 14.9561 22.4067 16.2503 21.0858 17.3439C21.0745 17.3532 21.0652 17.3648 21.0587 17.3779C21.0521 17.391 21.0483 17.4053 21.0475 17.42C21.0468 17.4346 21.0491 17.4492 21.0543 17.4629C21.0596 17.4766 21.0676 17.4891 21.0779 17.4995L22.1273 18.5484C22.1459 18.5671 22.1708 18.5782 22.1972 18.5795C22.2235 18.5808 22.2494 18.5721 22.2697 18.5552C23.6798 17.3679 24.9004 15.9723 25.8894 14.4166C26.0642 14.1425 26.1566 13.8239 26.1557 13.4988C26.1547 13.1737 26.0605 12.8557 25.8841 12.5825Z" fill="white"/>
<path d="M13.5 8.4375C13.1208 8.4373 12.7427 8.47975 12.373 8.56406C12.3544 8.56794 12.3371 8.57681 12.3231 8.58972C12.309 8.60264 12.2988 8.61912 12.2933 8.63741C12.2879 8.6557 12.2876 8.67511 12.2923 8.69358C12.2971 8.71205 12.3067 8.72889 12.3203 8.74231L18.2577 14.6781C18.2711 14.6916 18.2879 14.7013 18.3064 14.7061C18.3249 14.7108 18.3443 14.7105 18.3626 14.705C18.3809 14.6996 18.3973 14.6894 18.4102 14.6753C18.4232 14.6613 18.432 14.644 18.4359 14.6254C18.6049 13.8839 18.6048 13.1139 18.4354 12.3726C18.2661 11.6312 17.9319 10.9376 17.4577 10.3431C16.9835 9.7486 16.3814 9.26858 15.6963 8.93868C15.0111 8.60879 14.2604 8.43749 13.5 8.4375ZM8.74227 12.3219C8.72886 12.3084 8.71202 12.2987 8.69355 12.2939C8.67508 12.2892 8.65566 12.2895 8.63738 12.295C8.61909 12.3004 8.60261 12.3106 8.58969 12.3247C8.57678 12.3387 8.56791 12.356 8.56403 12.3746C8.37279 13.2101 8.3968 14.0805 8.63382 14.9042C8.87084 15.7279 9.31311 16.4779 9.91917 17.084C10.5252 17.69 11.2753 18.1323 12.0989 18.3693C12.9226 18.6063 13.793 18.6303 14.6285 18.4391C14.6472 18.4352 14.6644 18.4264 14.6785 18.4134C14.6925 18.4005 14.7028 18.384 14.7082 18.3658C14.7136 18.3475 14.7139 18.3281 14.7092 18.3096C14.7044 18.2911 14.6948 18.2743 14.6812 18.2609L8.74227 12.3219Z" fill="white"/>
</svg>
