<svg width="549" height="549" viewBox="0 0 549 549" fill="none" xmlns="http://www.w3.org/2000/svg">
<path d="M549 419.873H0V420.148H549V419.873Z" fill="#EBEBEB"/>
<path d="M493.991 437.547H457.623V437.821H493.991V437.547Z" fill="#EBEBEB"/>
<path d="M363.68 440.527H354.135V440.801H363.68V440.527Z" fill="#EBEBEB"/>
<path d="M456.524 427.351H435.451V427.625H456.524V427.351Z" fill="#EBEBEB"/>
<path d="M105.026 429.195H57.6V429.47H105.026V429.195Z" fill="#EBEBEB"/>
<path d="M121.756 429.195H114.802V429.47H121.756V429.195Z" fill="#EBEBEB"/>
<path d="M247.211 433.832H144.355V434.107H247.211V433.832Z" fill="#EBEBEB"/>
<path d="M260.241 370.905H48.2187C44.7633 370.905 41.9513 368.093 41.9513 364.637V66.6048C41.9513 63.1494 44.7633 60.3374 48.2187 60.3374H260.241C263.696 60.3374 266.508 63.1494 266.508 66.6048V364.637C266.508 368.093 263.696 370.905 260.241 370.905ZM48.2187 60.613C44.9137 60.613 42.2258 63.3009 42.2258 66.6059V364.638C42.2258 367.943 44.9137 370.631 48.2187 370.631H260.241C263.545 370.631 266.233 367.943 266.233 364.638V66.6048C266.233 63.3009 263.545 60.6119 260.241 60.6119L48.2187 60.613Z" fill="#EBEBEB"/>
<path d="M497.734 370.905H285.713C282.257 370.905 279.447 368.093 279.447 364.637V66.6048C279.447 63.1494 282.258 60.3374 285.713 60.3374H497.734C501.191 60.3374 504.002 63.1494 504.002 66.6048V364.637C504.003 368.093 501.191 370.905 497.734 370.905ZM285.713 60.613C282.409 60.613 279.721 63.3009 279.721 66.6059V364.638C279.721 367.943 282.409 370.631 285.713 370.631H497.734C501.039 370.631 503.727 367.943 503.727 364.638V66.6048C503.727 63.3009 501.039 60.6119 497.734 60.6119L285.713 60.613Z" fill="#EBEBEB"/>
<path d="M409.732 142.751H394.177V191.185H409.732V142.751Z" fill="#E6E6E6"/>
<path d="M451.906 191.185H400.28L392.483 134.496H444.109L451.906 191.185Z" fill="#F0F0F0"/>
<path d="M457.497 191.185H404.172L396.375 134.496H449.7L457.497 191.185Z" fill="#F5F5F5"/>
<path d="M408.024 186.718L401.457 138.964H445.847L452.416 186.718H408.024Z" fill="white"/>
<path d="M416.795 172.259L414.33 154.333C414.055 152.327 415.613 150.539 417.637 150.539H433.768C435.436 150.539 436.849 151.77 437.076 153.423L439.541 171.349C439.817 173.355 438.259 175.142 436.234 175.142H420.104C418.436 175.143 417.023 173.911 416.795 172.259Z" fill="#F5F5F5"/>
<path d="M312.868 89.688H80.3253V233.146H312.868V89.688Z" fill="#E6E6E6"/>
<path d="M318.844 89.688H83.1175V233.146H318.844V89.688Z" fill="#F0F0F0"/>
<path d="M312.868 233.146H80.3253V244.248H312.868V233.146Z" fill="#E6E6E6"/>
<path d="M328.796 233.146H93.0698V244.248H328.796V233.146Z" fill="#F0F0F0"/>
<path d="M310.479 224.782V98.0518L91.4809 98.0518L91.4809 224.782L310.479 224.782Z" fill="#FAFAFA"/>
<path d="M107.558 224.783L156.648 98.0515H179.822L130.731 224.783H107.558Z" fill="white"/>
<path d="M135.71 224.783L184.8 98.0515H193.834L144.744 224.783H135.71Z" fill="white"/>
<path d="M221.596 224.783L270.687 98.0515H279.721L230.631 224.783H221.596Z" fill="white"/>
<path d="M310.478 224.782V98.0515H309.417V224.782H310.478Z" fill="#E6E6E6"/>
<path d="M489.162 191.185H439.929V419.873H489.162V191.185Z" fill="#E6E6E6"/>
<path d="M484.209 419.873H489.161V405.787H479.017L484.209 419.873Z" fill="#F0F0F0"/>
<path d="M402.888 191.185H353.655V419.873H402.888V191.185Z" fill="#E6E6E6"/>
<path d="M489.161 191.185H398.565V411.23H489.161V191.185Z" fill="#F0F0F0"/>
<path d="M403.518 419.873H398.565V405.787H408.711L403.518 419.873Z" fill="#F0F0F0"/>
<path d="M485.319 195.215H402.407V299.021H485.319V195.215Z" fill="#E6E6E6"/>
<path d="M452.842 203.293H434.886C427.087 203.293 419.63 200.085 414.267 194.424H473.462C468.097 200.085 460.641 203.293 452.842 203.293Z" fill="#F0F0F0"/>
<path d="M485.319 303.223H402.407V407.029H485.319V303.223Z" fill="#E6E6E6"/>
<path d="M452.842 311.301H434.886C427.087 311.301 419.63 308.093 414.267 302.432H473.462C468.097 308.093 460.641 311.301 452.842 311.301Z" fill="#F0F0F0"/>
<path d="M142.19 263.398H224.127L236.002 311.784H154.065L142.19 263.398Z" fill="#E6E6E6"/>
<path d="M154.065 311.784L154.396 314.457H236.338L236.006 311.784H154.065Z" fill="#E6E6E6"/>
<path d="M144.712 263.398H226.649L238.524 311.784H156.587L144.712 263.398Z" fill="#F0F0F0"/>
<path d="M158.32 309.572L147.529 265.608H224.915L235.707 309.572H158.32Z" fill="white"/>
<path d="M177.936 311.784L178.268 314.457H268.498L268.167 311.784H177.936Z" fill="#F0F0F0"/>
<path d="M289.088 314.458H279.27V419.862H289.088V314.458Z" fill="#E6E6E6"/>
<path d="M292.187 314.458H285.368V419.862H292.187V314.458Z" fill="#F0F0F0"/>
<path d="M167.802 326.522H294.299V314.458H167.802V326.522Z" fill="#F0F0F0"/>
<path d="M163.405 326.521H153.587V419.862H163.405V326.521Z" fill="#E6E6E6"/>
<path d="M166.504 326.521H159.685V419.862H166.504V326.521Z" fill="#F0F0F0"/>
<path d="M101.273 326.521H91.4546V419.862H101.273V326.521Z" fill="#E6E6E6"/>
<path d="M104.371 326.521H97.5529V419.862H104.371V326.521Z" fill="#F0F0F0"/>
<path d="M226.955 326.521H217.137V419.862H226.955V326.521Z" fill="#E6E6E6"/>
<path d="M230.054 326.521H223.235V419.862H230.054V326.521Z" fill="#F0F0F0"/>
<path d="M167.801 314.458H91.4546V326.521H167.801V314.458Z" fill="#E6E6E6"/>
<path d="M320.992 419.873H318.601L311.776 386.228L310.577 380.334L303.13 343.67H274.577L259.105 419.873H256.715L272.48 342.263C272.592 341.72 273.066 341.331 273.627 341.331H304.088C304.64 341.331 305.123 341.72 305.226 342.263L311.767 374.467L312.966 380.352L320.992 419.873Z" fill="#F0F0F0"/>
<path d="M366.83 419.873H364.439L348.959 343.67H320.414L312.967 380.352L311.776 386.228L304.942 419.873H302.552L310.577 380.335L311.768 374.467L318.309 342.264C318.421 341.721 318.904 341.332 319.456 341.332H349.917C350.478 341.332 350.953 341.721 351.065 342.264L366.83 419.873Z" fill="#F0F0F0"/>
<path d="M296.451 342.499H348.914C358.93 342.499 364.479 335.688 367.31 324.474L368.703 318.061C369.848 312.792 367.889 307.2 363.446 304.146C361.291 302.666 358.681 301.799 355.866 301.799H322.979C316.165 301.799 314.368 303.42 309.663 313.682C304.957 323.944 296.451 342.499 296.451 342.499Z" fill="#F0F0F0"/>
<path d="M273.724 332.447H325.064V342.499H269.158C267.711 342.499 266.538 341.327 266.538 339.879V339.632C266.538 335.664 269.756 332.447 273.724 332.447Z" fill="#F0F0F0"/>
<path d="M274.5 469.462C392.076 469.462 487.39 463.896 487.39 457.029C487.39 450.163 392.076 444.597 274.5 444.597C156.924 444.597 61.6099 450.163 61.6099 457.029C61.6099 463.896 156.924 469.462 274.5 469.462Z" fill="#F5F5F5"/>
<path d="M222.93 421.907L215.904 426.432L203.166 411.617L210.192 407.092L222.93 421.907Z" fill="#FF8B7B"/>
<path opacity="0.2" d="M210.197 407.094L203.168 411.621L209.738 419.255L216.766 414.729L210.197 407.094Z" fill="black"/>
<path d="M169.219 446.067L161.147 446.856L152.747 427.642L160.82 426.853L169.219 446.067Z" fill="#FF8B7B"/>
<path opacity="0.2" d="M152.751 427.647L157.08 437.551H165.5L160.827 426.857L152.751 427.647Z" fill="black"/>
<path d="M107.855 186.668C103.788 187.038 103.685 180.141 96.5504 183.389C87.481 187.517 90.5389 193.921 83.4634 193.65C76.3879 193.379 71.6291 198.91 73.2157 203.037C74.8023 207.164 77.2421 211.046 72.2396 212.704C67.2371 214.362 63.8212 215.826 64.5536 219.974C65.286 224.123 68.8237 225.795 62.8451 228.436C56.8676 231.076 57.477 242.524 63.3326 242.534C69.1883 242.544 63.5764 248.251 68.8226 254.04C74.0689 259.828 82.0535 260.682 85.3816 257.774C88.7085 254.867 92.4209 252.549 98.6784 256.941C104.935 261.333 115.526 262.431 115.05 255.477C114.573 248.523 108.489 243.948 114.215 240.319C119.941 236.689 127.4 234.91 125.057 227.865C123.579 223.419 119.095 219.649 122.717 216.359C128.589 211.025 128.619 198.947 121.419 195.885C117.235 194.102 121.268 185.448 107.855 186.668Z" fill="#263238"/>
<path d="M100.039 240.92C99.8455 244.178 99.425 247.152 98.9364 250.239C98.4247 253.294 97.7538 256.328 96.9578 259.348C96.1683 262.369 95.1922 265.365 93.9756 268.306C93.3805 269.78 92.7041 271.238 91.9761 272.678C91.6127 273.4 91.2218 274.114 90.8167 274.823C90.6234 275.18 90.3961 275.527 90.1875 275.879L89.8669 276.405C89.6857 276.676 89.4398 277.063 89.1488 277.375C88.5921 278.034 87.7983 278.617 86.9868 278.99C86.1589 279.38 85.342 279.532 84.613 279.591C83.1493 279.689 82.0217 279.412 81.05 279.111C79.1175 278.475 77.6319 277.623 76.2209 276.741C73.4342 274.957 71.0285 272.99 68.7183 270.935C64.1528 266.774 60.0101 262.401 56.133 257.678L59.2129 254.774C61.4034 256.706 63.6412 258.672 65.9085 260.54C68.155 262.438 70.4433 264.274 72.7765 265.987C75.0911 267.704 77.4485 269.372 79.807 270.628C80.9687 271.253 82.1666 271.768 83.101 271.981C83.5589 272.096 83.9278 272.079 83.9564 272.057C83.9662 272.044 83.8949 272.049 83.7379 272.102C83.594 272.148 83.4271 272.293 83.3404 272.369C83.3184 272.402 83.3008 272.413 83.2866 272.424C83.2822 272.419 83.2405 272.497 83.2778 272.432L83.5183 271.989C83.6753 271.69 83.8466 271.406 83.9926 271.097C84.2989 270.493 84.5965 269.882 84.8743 269.255C85.431 268.002 85.9536 266.722 86.4126 265.401C87.3371 262.768 88.1046 260.039 88.7865 257.273C89.4595 254.504 89.9844 251.681 90.4378 248.844C90.9078 246.038 91.2614 243.084 91.5128 240.386L100.039 240.92Z" fill="#FF8B7B"/>
<path d="M106.42 241.957C105.981 244.615 103.774 249.632 101.995 253.377C100.7 256.078 99.6457 258.109 99.6457 258.109L98.1085 257.428L85.3827 251.763C86.3489 244.9 87.919 237.434 95.4843 234.118C100.239 232.032 107.2 237.214 106.42 241.957Z" fill="#407BFF"/>
<path opacity="0.6" d="M106.42 241.957C105.981 244.615 103.774 249.632 101.995 253.377C100.7 256.078 99.6457 258.109 99.6457 258.109L98.1085 257.428L85.3827 251.763C86.3489 244.9 87.919 237.434 95.4843 234.118C100.239 232.032 107.2 237.214 106.42 241.957Z" fill="black"/>
<path opacity="0.3" d="M101.995 253.377C100.7 256.078 99.6457 258.109 99.6457 258.109L98.1085 257.428C98.3171 254.716 98.8551 250.445 100.326 248.523C101.238 249.918 101.743 251.631 101.995 253.377Z" fill="black"/>
<path d="M59.6994 257.255L60.7139 249.861L52.4163 252.584C52.4163 252.584 53.7405 257.059 56.693 258.89L59.6994 257.255Z" fill="#FF8B7B"/>
<path d="M56.9478 243.55L51.1646 246.721L52.4152 252.583L60.7128 249.861L56.9478 243.55Z" fill="#FF8B7B"/>
<path d="M213.31 424.217L220.94 418.745C221.217 418.547 221.581 418.577 221.814 418.82L227.013 424.233C227.552 424.794 227.439 425.774 226.79 426.222C224.097 428.084 222.703 428.847 219.347 431.253C217.283 432.733 212.935 436.311 210.085 438.356C207.297 440.355 205.061 437.69 206.065 436.583C210.566 431.622 211.761 428.24 212.474 425.449C212.604 424.945 212.904 424.509 213.31 424.217Z" fill="#263238"/>
<path d="M160.075 444.362H169.989C170.35 444.362 170.675 444.612 170.772 444.964L172.927 452.809C173.151 453.622 172.552 454.37 171.717 454.378C168.223 454.409 166.568 454.394 162.208 454.394C159.525 454.394 152.586 454.394 148.882 454.394C145.26 454.394 144.502 450.731 146.001 450.399C152.722 448.912 156.597 446.861 158.67 444.904C159.045 444.552 159.547 444.362 160.075 444.362Z" fill="#263238"/>
<path d="M144.993 271.713C138.745 273.69 125.471 277.884 112.635 281.947C90.2358 237.609 93.431 235.26 93.431 235.26C93.431 235.26 98.6026 232.306 103.983 229.847C104.795 229.473 105.619 229.111 106.431 228.771C111.087 226.816 115.6 225.575 121.123 224.115C121.858 223.917 122.594 223.742 123.33 223.566C129.621 222.117 135.44 221.579 135.44 221.579C135.924 227.716 136.407 232.91 136.934 237.423C137.615 243.308 138.35 248.018 139.174 252.092C140.722 259.668 142.577 265.048 144.993 271.713Z" fill="#407BFF"/>
<path opacity="0.6" d="M144.993 271.713C138.745 273.69 125.471 277.884 112.635 281.947C90.2358 237.609 93.431 235.26 93.431 235.26C93.431 235.26 98.6026 232.306 103.983 229.847C104.795 229.473 105.619 229.111 106.431 228.771C111.087 226.816 115.6 225.575 121.123 224.115C121.858 223.917 122.594 223.742 123.33 223.566C129.621 222.117 135.44 221.579 135.44 221.579C135.924 227.716 136.407 232.91 136.934 237.423C137.615 243.308 138.35 248.018 139.174 252.092C140.722 259.668 142.577 265.048 144.993 271.713Z" fill="black"/>
<path opacity="0.3" d="M139.174 252.092C136.066 247.678 133.091 237.478 133.859 233.646L136.934 237.423C137.615 243.308 138.35 248.018 139.174 252.092Z" fill="black"/>
<path d="M113.78 243.537C113.78 243.537 121.946 241.772 124.569 245.311C128.168 241.773 126.899 227.913 125.16 222.972C123.787 223.094 121.127 224.116 121.127 224.116L115.367 233.027L113.78 243.537Z" fill="white"/>
<path d="M113.78 243.537C113.78 243.537 108.261 244.769 107.712 249.254C100.052 243.537 100.564 235.157 102.302 230.216C103.552 229.453 106.431 228.769 106.431 228.769L112.194 235.109L113.78 243.537Z" fill="white"/>
<path d="M115.666 214.762C116.714 218.799 118.434 222.797 121.127 224.116C121.127 224.116 123.662 231.38 113.78 243.539C103.439 236.17 106.434 228.766 106.434 228.766C111.308 225.839 109.934 221.97 107.853 218.588L110.721 213.989C111.99 211.953 115.063 212.44 115.666 214.762Z" fill="#FF8B7B"/>
<path opacity="0.2" d="M115.668 214.758C115.064 212.441 111.989 211.958 110.716 213.989L109.793 215.461C109.793 215.472 109.793 215.472 109.793 215.472C109.87 216.449 109.914 217.25 109.903 217.668C109.815 220.522 113.823 220.389 117.084 219.017C116.513 217.689 116.041 216.229 115.668 214.758Z" fill="black"/>
<path d="M95.8027 203.718C98.652 211.508 99.6918 214.865 104.912 217.744C112.763 222.076 121.708 216.872 121.242 208.388C120.824 200.753 116.234 189.297 107.528 188.452C98.9496 187.62 92.9523 195.929 95.8027 203.718Z" fill="#FF8B7B"/>
<path d="M115.988 192.019C113.316 189.436 110.521 186.438 105.121 187.023C99.167 187.669 96.8194 191.269 96.8194 191.269L91.7006 202.458C91.7006 202.458 94.876 216.865 100.116 210.133C103.13 206.261 103.253 200.389 102.077 195.994C103.751 195.834 105.944 195.234 108.139 194.584C110.551 195.487 113.265 195.491 115.277 193.642C115.714 193.24 116.037 192.921 116.267 192.67L116.448 192.458C117.079 191.699 116.58 191.781 115.988 192.019ZM109.074 194.305C111.208 193.665 113.267 193.037 114.781 192.78C114.115 193.637 112.156 194.987 109.074 194.305Z" fill="#263238"/>
<path d="M96.2002 211.634C97.0599 213.123 98.5268 214.077 99.8971 214.421C101.958 214.938 102.933 213.081 102.313 211.165C101.755 209.44 100.01 207.093 97.9636 207.426C95.9476 207.755 95.2175 209.931 96.2002 211.634Z" fill="#FF8B7B"/>
<path d="M112.633 281.952C112.633 281.952 111.492 348.269 120.2 372.226C128.548 395.194 153.437 434.68 153.437 434.68L167.86 434.308C167.86 434.308 144.947 384.318 141.189 364.539C134.955 331.74 136.331 274.454 136.331 274.454L112.633 281.952Z" fill="#407BFF"/>
<path opacity="0.3" d="M125.589 287.622L129.465 276.631L136.328 274.457C136.328 274.457 135.702 300.513 137.206 327.534C130.985 315.588 125.588 293.628 125.589 287.622Z" fill="black"/>
<path d="M151.402 435.427L169.219 434.973L168.189 429.498L148.735 430.42L151.402 435.427Z" fill="#263238"/>
<path d="M119.73 279.811C119.73 279.811 142.233 331.303 156.781 360.605C168.532 384.272 205.095 416.032 205.095 416.032L215.115 409.078C215.115 409.078 187.609 371.466 179.494 355.416C153.525 304.044 159.928 282.875 144.993 271.713L119.73 279.811Z" fill="#407BFF"/>
<path d="M205.644 419.35L217.417 410.974L214.744 405.833L201.81 415.618L205.644 419.35Z" fill="#263238"/>
<path d="M144.877 269.661L147.253 272.095C147.437 272.284 147.244 272.597 146.87 272.716L112.933 283.453C112.641 283.545 112.354 283.478 112.277 283.301L111.069 280.497C110.986 280.303 111.185 280.054 111.504 279.952L144.273 269.585C144.513 269.508 144.758 269.539 144.877 269.661Z" fill="#263238"/>
<path d="M141.635 274.717L142.513 274.44C142.687 274.385 142.792 274.252 142.745 274.145L141.143 270.512C141.096 270.406 140.915 270.364 140.741 270.419L139.863 270.696C139.689 270.751 139.584 270.884 139.63 270.991L141.232 274.624C141.279 274.732 141.46 274.773 141.635 274.717Z" fill="#407BFF"/>
<path d="M115.498 282.987L116.375 282.71C116.549 282.655 116.654 282.522 116.608 282.415L115.006 278.782C114.958 278.676 114.777 278.634 114.603 278.689L113.725 278.967C113.551 279.021 113.446 279.154 113.493 279.261L115.095 282.894C115.142 283.001 115.323 283.042 115.498 282.987Z" fill="#407BFF"/>
<path d="M128.566 278.852L129.443 278.575C129.618 278.52 129.723 278.387 129.676 278.28L128.074 274.647C128.027 274.541 127.846 274.499 127.671 274.554L126.794 274.832C126.619 274.886 126.515 275.019 126.561 275.126L128.163 278.759C128.21 278.866 128.391 278.907 128.566 278.852Z" fill="#407BFF"/>
<path d="M109.462 202.011C109.654 202.657 110.152 203.079 110.574 202.953C110.996 202.827 111.182 202.202 110.99 201.555C110.798 200.91 110.3 200.487 109.877 200.613C109.456 200.74 109.27 201.366 109.462 202.011Z" fill="#263238"/>
<path d="M116.764 199.837C116.956 200.483 117.454 200.905 117.877 200.779C118.3 200.653 118.485 200.028 118.293 199.381C118.101 198.736 117.602 198.313 117.181 198.439C116.758 198.566 116.571 199.191 116.764 199.837Z" fill="#263238"/>
<path d="M117.005 198.531L118.424 197.622C118.424 197.622 117.988 199.071 117.005 198.531Z" fill="#263238"/>
<path d="M114.944 201.511C114.944 201.511 116.869 203.967 118.474 204.949C117.858 205.999 116.3 206.067 116.3 206.067L114.944 201.511Z" fill="#FF5652"/>
<path d="M114.11 209.604C114.169 209.554 114.196 209.473 114.173 209.394C114.141 209.29 114.032 209.229 113.927 209.261C111.1 210.103 109.179 208.519 109.159 208.502C109.075 208.432 108.948 208.445 108.88 208.526C108.81 208.609 108.819 208.733 108.903 208.804C108.987 208.876 111 210.546 114.04 209.64C114.066 209.633 114.09 209.62 114.11 209.604Z" fill="#263238"/>
<path d="M106.699 200.237C106.751 200.194 106.793 200.138 106.818 200.071C107.436 198.418 108.857 198.084 108.871 198.08C109.083 198.034 109.219 197.821 109.172 197.608C109.125 197.395 108.913 197.26 108.7 197.308C108.624 197.325 106.845 197.742 106.077 199.794C106 199.998 106.104 200.227 106.308 200.304C106.446 200.354 106.594 200.325 106.699 200.237Z" fill="#263238"/>
<path d="M118.986 195.697C118.995 195.673 119.002 195.65 119.007 195.625C119.048 195.411 118.908 195.204 118.693 195.162C116.543 194.748 115.258 196.048 115.204 196.104C115.052 196.261 115.057 196.512 115.214 196.664C115.371 196.815 115.62 196.811 115.773 196.655C115.821 196.607 116.833 195.611 118.543 195.939C118.733 195.975 118.918 195.87 118.986 195.697Z" fill="#263238"/>
<path d="M140.356 229.325C141.664 230.308 142.763 231.218 143.907 232.209C145.032 233.19 146.136 234.187 147.219 235.208C149.363 237.272 151.421 239.429 153.374 241.696C155.337 243.957 157.168 246.344 158.851 248.864C159.288 249.479 159.671 250.144 160.082 250.781C160.491 251.42 160.891 252.067 161.257 252.743C161.635 253.428 161.999 254.035 162.386 254.786L162.968 256.005L163.441 257.235C164.581 260.535 164.841 263.783 164.839 266.896C164.776 270.011 164.438 273.029 163.863 275.966C163.295 278.903 162.552 281.768 161.699 284.583C160.782 287.395 159.834 290.12 158.601 292.867L154.63 291.401C155.311 288.764 155.961 285.995 156.445 283.267C156.972 280.538 157.384 277.797 157.622 275.076C157.857 272.357 157.974 269.66 157.802 267.059C157.716 265.764 157.568 264.497 157.338 263.283C157.093 262.077 156.748 260.939 156.339 259.897L156.008 259.14L155.628 258.443C155.336 257.938 154.932 257.337 154.592 256.789C154.248 256.224 153.866 255.675 153.474 255.131C153.08 254.589 152.721 254.03 152.299 253.501C150.697 251.343 148.893 249.31 147.086 247.277C145.261 245.257 143.309 243.332 141.303 241.469C140.309 240.527 139.293 239.608 138.266 238.707C137.247 237.833 136.155 236.904 135.203 236.14L140.356 229.325Z" fill="#FF8B7B"/>
<path d="M155.828 288.772L149.814 293.191L157.545 297.253C157.545 297.253 159.836 293.187 159.095 289.793L155.828 288.772Z" fill="#FF8B7B"/>
<path d="M147.906 300.288L154.209 302.232L157.547 297.253L149.814 293.191L147.906 300.288Z" fill="#FF8B7B"/>
<path d="M135.442 221.579C139.647 221.389 147.912 231.723 147.912 231.723L139.33 243.862C139.33 243.862 129.687 236.197 128.94 230.829C128.307 226.271 130.086 221.82 135.442 221.579Z" fill="#407BFF"/>
<path opacity="0.6" d="M135.442 221.579C139.647 221.389 147.912 231.723 147.912 231.723L139.33 243.862C139.33 243.862 129.687 236.197 128.94 230.829C128.307 226.271 130.086 221.82 135.442 221.579Z" fill="black"/>
<path d="M210.424 427.652C210.378 427.652 210.333 427.65 210.289 427.645C209.913 427.601 209.617 427.377 209.409 426.981C209.254 426.683 209.321 426.446 209.405 426.299C209.939 425.376 212.956 425.227 213.297 425.214C213.378 425.21 213.45 425.254 213.484 425.326C213.518 425.397 213.507 425.481 213.454 425.541C212.756 426.344 211.458 427.652 210.424 427.652ZM212.835 425.637C211.631 425.732 210.029 426.011 209.748 426.497C209.713 426.559 209.682 426.648 209.76 426.797C209.905 427.074 210.092 427.222 210.335 427.25C210.903 427.32 211.822 426.721 212.835 425.637Z" fill="#407BFF"/>
<path d="M213.105 425.618C212.091 425.618 210.101 425.06 209.734 424.25C209.659 424.082 209.586 423.751 209.954 423.413C210.188 423.199 210.467 423.107 210.79 423.14C211.996 423.264 213.407 425.213 213.468 425.295C213.508 425.352 213.516 425.427 213.487 425.492C213.459 425.556 213.397 425.6 213.327 425.608C213.26 425.614 213.185 425.618 213.105 425.618ZM210.666 423.529C210.495 423.529 210.349 423.588 210.222 423.705C210.034 423.877 210.056 423.999 210.095 424.087C210.336 424.62 211.895 425.169 212.91 425.221C212.406 424.597 211.467 423.608 210.748 423.534C210.72 423.53 210.692 423.529 210.666 423.529Z" fill="#407BFF"/>
<path d="M155.679 445.998C154.912 445.998 154.199 445.879 153.743 445.534C153.432 445.299 153.262 444.979 153.24 444.582C153.224 444.287 153.366 444.127 153.489 444.043C154.39 443.435 157.764 444.968 158.433 445.282C158.509 445.318 158.554 445.398 158.546 445.483C158.537 445.567 158.474 445.635 158.392 445.654C157.671 445.813 156.634 445.998 155.679 445.998ZM154.099 444.288C153.929 444.288 153.796 444.314 153.71 444.371C153.669 444.399 153.628 444.443 153.634 444.56C153.651 444.839 153.764 445.056 153.981 445.219C154.562 445.659 155.932 445.717 157.707 445.389C156.489 444.859 154.895 444.288 154.099 444.288Z" fill="#407BFF"/>
<path d="M158.347 445.658C158.322 445.658 158.296 445.654 158.272 445.644C157.153 445.186 154.897 443.377 155.023 442.442C155.051 442.237 155.191 441.98 155.701 441.92C157.673 441.687 158.505 445.265 158.54 445.418C158.557 445.49 158.531 445.565 158.475 445.613C158.439 445.643 158.393 445.658 158.347 445.658ZM155.882 442.304C155.838 442.304 155.793 442.306 155.748 442.312C155.54 442.337 155.428 442.398 155.415 442.495C155.342 443.037 156.901 444.467 158.042 445.093C157.781 444.229 157.069 442.304 155.882 442.304Z" fill="#407BFF"/>
<path d="M109.702 200.706L111.121 199.796C111.121 199.796 110.685 201.245 109.702 200.706Z" fill="#263238"/>
<path d="M316.915 120.414H157.339C150.092 120.414 144.448 126.344 144.798 133.59L159.756 443.853C160.105 451.1 166.321 457.029 173.566 457.029H333.142C340.389 457.029 346.033 451.1 345.682 443.853L330.724 133.59C330.377 126.344 324.161 120.414 316.915 120.414Z" fill="black"/>
<path d="M322.771 120.414H163.196C155.949 120.414 150.305 126.344 150.655 133.59L165.614 443.853C165.963 451.1 172.178 457.029 179.425 457.029H339.001C346.248 457.029 351.891 451.1 351.541 443.853L336.583 133.59C336.233 126.344 330.018 120.414 322.771 120.414Z" fill="#263238"/>
<path d="M179 448.245C176.62 448.245 174.512 446.234 174.396 443.853L159.438 133.59C159.323 131.21 161.238 129.198 163.618 129.198H323.194C325.575 129.198 327.683 131.21 327.798 133.59L342.756 443.853C342.87 446.234 340.956 448.245 338.576 448.245H179Z" fill="#407BFF"/>
<path opacity="0.1" d="M178.894 446.049C177.723 446.049 176.648 445.023 176.592 443.853L161.634 133.59C161.578 132.421 162.554 131.394 163.725 131.394H323.301C324.47 131.394 325.546 132.421 325.602 133.59L340.56 443.853C340.616 445.023 339.64 446.049 338.469 446.049H178.894Z" fill="black"/>
<g opacity="0.3">
<path d="M227.058 428.174H195.399C193.622 428.174 192.107 426.729 192.022 424.952L189.708 376.954C189.666 376.081 189.968 375.259 190.559 374.64C191.149 374.021 191.953 373.68 192.825 373.68H224.484C226.26 373.68 227.776 375.125 227.861 376.902L230.175 424.9C230.217 425.773 229.915 426.595 229.324 427.214C228.734 427.834 227.929 428.174 227.058 428.174ZM192.824 374.778C192.255 374.778 191.733 374.998 191.353 375.397C190.972 375.797 190.776 376.332 190.804 376.902L193.118 424.9C193.177 426.1 194.199 427.076 195.399 427.076H227.058C227.626 427.076 228.149 426.856 228.529 426.457C228.91 426.057 229.105 425.522 229.078 424.952L226.764 376.954C226.706 375.754 225.684 374.778 224.484 374.778H192.824Z" fill="#FAFAFA"/>
<path d="M224.074 385.968H194.313C194.01 385.968 193.764 385.722 193.764 385.419C193.764 385.116 194.01 384.87 194.313 384.87H224.074C224.377 384.87 224.623 385.116 224.623 385.419C224.623 385.722 224.377 385.968 224.074 385.968Z" fill="#FAFAFA"/>
<path d="M224.373 392.171H194.612C194.309 392.171 194.063 391.926 194.063 391.622C194.063 391.319 194.309 391.073 194.612 391.073H224.373C224.676 391.073 224.922 391.319 224.922 391.622C224.922 391.926 224.676 392.171 224.373 392.171Z" fill="#FAFAFA"/>
<path d="M224.672 398.374H194.91C194.607 398.374 194.361 398.128 194.361 397.825C194.361 397.522 194.607 397.276 194.91 397.276H224.672C224.975 397.276 225.221 397.522 225.221 397.825C225.221 398.129 224.975 398.374 224.672 398.374Z" fill="#FAFAFA"/>
<path d="M224.971 404.578H195.21C194.907 404.578 194.661 404.332 194.661 404.029C194.661 403.726 194.907 403.48 195.21 403.48H224.971C225.274 403.48 225.52 403.726 225.52 404.029C225.52 404.332 225.274 404.578 224.971 404.578Z" fill="#FAFAFA"/>
<path d="M225.27 410.78H195.509C195.206 410.78 194.96 410.534 194.96 410.231C194.96 409.928 195.206 409.682 195.509 409.682H225.27C225.573 409.682 225.819 409.928 225.819 410.231C225.819 410.534 225.573 410.78 225.27 410.78Z" fill="#FAFAFA"/>
<path d="M219.466 416.984H195.807C195.504 416.984 195.258 416.738 195.258 416.435C195.258 416.132 195.504 415.886 195.807 415.886H219.466C219.769 415.886 220.015 416.132 220.015 416.435C220.015 416.738 219.769 416.984 219.466 416.984Z" fill="#FAFAFA"/>
</g>
<g opacity="0.3">
<path d="M246.981 252.135L225.273 255.605C224.041 252.821 222.959 250.891 222.024 249.813C221.09 248.734 219.577 247.647 217.486 246.549L218.307 263.561C230.376 266.739 238.497 270.094 242.666 273.624C248.186 278.372 251.122 284.393 251.475 291.689C251.681 295.965 250.919 299.888 249.19 303.459C247.46 307.029 245.174 310.01 242.33 312.403C239.485 314.796 236.422 316.532 233.143 317.611C229.862 318.689 225.817 319.326 221.004 319.522L221.148 322.512C221.262 324.883 219.433 326.804 217.063 326.804C214.692 326.804 212.677 324.883 212.563 322.512L212.419 319.522C206.632 319.013 201.912 318.082 198.26 316.729C194.608 315.376 191.421 313.505 188.699 311.114C185.976 308.724 183.844 306.146 182.299 303.382C180.754 300.618 179.535 297.277 178.64 293.356L202.263 290.592C203.155 294.473 204.24 297.276 205.52 299.001C206.798 300.726 208.842 302.255 211.652 303.587L210.65 282.809C202.625 280.612 196.918 278.709 193.528 277.099C190.137 275.492 187.142 272.911 184.541 269.361C181.939 265.812 180.516 261.487 180.27 256.386C179.933 249.404 182.092 243.568 186.747 238.881C191.401 234.194 198.538 231.595 208.157 231.084L208.083 229.556C207.969 227.185 209.798 225.262 212.169 225.262C214.539 225.262 216.554 227.184 216.668 229.556L216.742 231.084C225.549 231.633 232.363 233.71 237.182 237.317C242 240.924 245.267 245.863 246.981 252.135ZM208.887 246.255C206.417 247.083 204.722 248.107 203.802 249.328C202.881 250.549 202.46 251.988 202.54 253.641C202.624 255.375 203.194 256.882 204.25 258.162C205.306 259.442 207.095 260.514 209.617 261.376L208.887 246.255ZM220.264 304.175C223.559 303.428 225.941 302.198 227.408 300.488C228.874 298.777 229.556 296.86 229.453 294.736C229.365 292.887 228.628 291.187 227.242 289.634C225.858 288.081 223.229 286.637 219.355 285.304L220.264 304.175Z" fill="#FAFAFA"/>
</g>
<path opacity="0.2" d="M304.364 160.917H195.701L206.293 380.639C207.186 399.16 222.924 414.174 241.445 414.174H350.108L339.516 194.451C338.624 175.932 322.886 160.917 304.364 160.917Z" fill="black"/>
<path d="M330.991 160.917H229.236H195.701C214.221 160.917 229.96 175.932 230.852 194.453L239.475 373.305C240.368 391.826 256.105 406.84 274.626 406.84H342.847C361.368 406.84 375.659 391.826 374.765 373.305L366.142 194.453C365.25 175.933 349.512 160.917 330.991 160.917Z" fill="#FAFAFA"/>
<path d="M306.545 373.306C307.438 391.827 293.147 406.841 274.626 406.841H308.161H409.916C428.437 406.841 442.728 391.827 441.835 373.306H306.545Z" fill="#E6E6E6"/>
<path d="M350.043 271.939H254.424C253.054 271.939 251.878 270.817 251.812 269.446C251.746 268.076 252.813 266.954 254.184 266.954H349.803C351.174 266.954 352.349 268.075 352.415 269.446C352.481 270.816 351.414 271.939 350.043 271.939Z" fill="#407BFF"/>
<path d="M350.793 287.501H255.173C253.803 287.501 252.627 286.378 252.561 285.008C252.495 283.637 253.562 282.516 254.934 282.516H350.553C351.924 282.516 353.099 283.638 353.165 285.008C353.232 286.378 352.164 287.501 350.793 287.501Z" fill="#407BFF"/>
<path d="M351.543 303.062H255.924C254.554 303.062 253.378 301.941 253.312 300.57C253.246 299.198 254.313 298.077 255.684 298.077H351.303C352.673 298.077 353.849 299.198 353.915 300.57C353.982 301.941 352.915 303.062 351.543 303.062Z" fill="#407BFF"/>
<path d="M352.293 318.624H256.674C255.303 318.624 254.128 317.503 254.062 316.132C253.996 314.76 255.063 313.639 256.435 313.639H352.055C353.425 313.639 354.601 314.76 354.667 316.132C354.732 317.503 353.665 318.624 352.293 318.624Z" fill="#407BFF"/>
<path d="M315.029 334.186H257.424C256.054 334.186 254.878 333.065 254.812 331.694C254.746 330.324 255.813 329.201 257.185 329.201H314.79C316.16 329.201 317.336 330.322 317.402 331.694C317.468 333.065 316.401 334.186 315.029 334.186Z" fill="#407BFF"/>
<path d="M321.657 239.662C332.969 228.073 332.281 209.055 320.119 197.184C307.958 185.313 288.929 185.085 277.617 196.674C266.305 208.263 266.993 227.281 279.155 239.151C291.316 251.022 310.345 251.25 321.657 239.662Z" fill="#407BFF"/>
<path d="M324.433 218.177C324.639 222.459 323.746 226.478 322.006 229.986C318.197 237.713 310.261 242.969 300.837 242.969C291.411 242.969 282.97 237.714 278.415 229.986C276.336 226.478 275.057 222.459 274.85 218.177C274.19 204.483 284.752 193.385 298.446 193.385C312.141 193.385 323.773 204.483 324.433 218.177Z" fill="white"/>
<path opacity="0.4" d="M322.006 229.986C318.197 237.713 310.261 242.969 300.837 242.969C291.411 242.969 282.97 237.714 278.415 229.986C284.456 225.817 291.829 223.383 299.892 223.383C307.956 223.383 315.563 225.816 322.006 229.986Z" fill="#407BFF"/>
<path opacity="0.4" d="M307.327 217.616C311.486 213.356 311.234 206.365 306.764 202C302.293 197.635 295.298 197.55 291.138 201.81C286.979 206.07 287.231 213.062 291.702 217.426C296.172 221.791 303.168 221.876 307.327 217.616Z" fill="#407BFF"/>
<path d="M391.723 448.793H383.658L382.854 430.113H390.92L391.723 448.793Z" fill="#B55B52"/>
<path opacity="0.2" d="M382.856 430.118L383.268 439.747H391.338L390.925 430.118H382.856Z" fill="black"/>
<path d="M460.38 426.905L452.711 429.404L443.069 412.899L450.739 410.401L460.38 426.905Z" fill="#B55B52"/>
<path opacity="0.2" d="M450.743 410.404L443.07 412.904L448.044 421.41L455.717 418.91L450.743 410.404Z" fill="black"/>
<path d="M418.991 178.883C419.994 180.107 420.845 181.197 421.706 182.385C422.563 183.55 423.4 184.724 424.22 185.912C425.851 188.293 427.405 190.731 428.863 193.244C431.764 198.283 434.4 203.554 436.263 209.402L436.442 209.946L436.534 210.233L436.655 210.682L436.873 211.583L436.996 212.406C437.147 213.506 437.15 214.463 437.112 215.384C437.016 217.21 436.727 218.816 436.386 220.362C435.706 223.444 434.686 226.218 433.629 228.94C431.434 234.355 428.826 239.357 425.777 244.259L420.32 241.634C421.967 236.493 423.569 231.212 424.82 226.088C425.457 223.534 425.959 220.961 426.24 218.58C426.373 217.396 426.433 216.244 426.367 215.297C426.335 214.834 426.289 214.398 426.205 214.132L426.156 213.93C426.132 213.897 426.113 213.863 426.099 213.829L426.081 213.777L425.995 213.575L425.811 213.145L425.081 211.425L424.255 209.709C423.711 208.565 423.104 207.42 422.496 206.283C421.251 204.014 419.893 201.763 418.494 199.531C417.072 197.306 415.594 195.1 414.079 192.915C412.596 190.747 410.944 188.532 409.462 186.542L418.991 178.883Z" fill="#B55B52"/>
<path d="M420.788 240.325L417.631 247.301H426.651C426.651 247.301 428.087 242.008 424.816 239.87L420.788 240.325Z" fill="#B55B52"/>
<path d="M418.686 255.142L427.056 253.523L426.651 247.301H417.631L418.686 255.142Z" fill="#B55B52"/>
<path d="M379.056 143.501C379.056 144.151 378.711 144.679 378.286 144.679C377.861 144.679 377.517 144.152 377.517 143.501C377.517 142.85 377.861 142.323 378.286 142.323C378.711 142.323 379.056 142.851 379.056 143.501Z" fill="#263238"/>
<path d="M378.772 144.679C378.772 144.679 377.293 148.432 375.663 150.244C376.814 151.319 378.772 150.827 378.772 150.827V144.679Z" fill="#A02724"/>
<path d="M381.362 139.896C381.284 139.896 381.206 139.873 381.139 139.824C379.757 138.828 378.438 139.32 378.425 139.325C378.228 139.401 378.006 139.303 377.931 139.107C377.855 138.91 377.953 138.688 378.149 138.612C378.218 138.586 379.871 137.968 381.586 139.204C381.757 139.327 381.796 139.567 381.673 139.738C381.598 139.841 381.48 139.896 381.362 139.896Z" fill="#263238"/>
<path d="M400.054 151.002C398.897 156.903 397.743 167.716 401.871 171.654C401.871 171.654 400.258 177.64 389.294 177.64C377.237 177.64 383.531 171.655 383.531 171.655C390.112 170.083 389.941 165.201 388.795 160.617L400.054 151.002Z" fill="#B55B52"/>
<path d="M403.451 173.708C404.315 171.813 405.267 169.644 403.299 168.966C401.134 168.218 389.279 167.456 385.193 168.859C381.106 170.262 382.264 174.105 382.264 174.105L403.451 173.708Z" fill="#263238"/>
<path d="M451.058 431.324C450.461 431.896 449.795 432.358 449.29 432.279C449.078 432.246 448.798 432.105 448.668 431.619C448.6 431.365 448.642 431.117 448.794 430.883C449.454 429.866 452.118 429.431 452.231 429.414C452.306 429.402 452.38 429.434 452.421 429.498C452.463 429.561 452.463 429.643 452.422 429.706C452.193 430.063 451.66 430.749 451.058 431.324ZM449.266 430.91C449.206 430.968 449.154 431.029 449.114 431.091C449.023 431.232 448.997 431.372 449.037 431.522C449.129 431.868 449.294 431.894 449.349 431.903C449.911 431.991 451.107 430.859 451.838 429.878C451.04 430.048 449.797 430.404 449.266 430.91Z" fill="#407BFF"/>
<path d="M452.394 429.741C452.372 429.763 452.343 429.778 452.311 429.787C451.394 430.036 449.007 429.875 448.509 429.107C448.419 428.968 448.31 428.681 448.602 428.324C448.791 428.094 449.046 427.964 449.36 427.94C450.567 427.846 452.315 429.395 452.388 429.461C452.44 429.508 452.463 429.579 452.446 429.647C452.439 429.682 452.42 429.715 452.394 429.741ZM448.957 428.502C448.936 428.522 448.916 428.543 448.898 428.566C448.739 428.759 448.802 428.857 448.829 428.899C449.124 429.352 450.789 429.607 451.825 429.488C451.287 429.062 450.162 428.259 449.388 428.32C449.213 428.334 449.07 428.395 448.957 428.502Z" fill="#407BFF"/>
<path d="M380.416 449.207C379.382 449.207 378.382 449.064 378.047 448.6C377.929 448.437 377.837 448.16 378.062 447.764C378.189 447.543 378.393 447.392 378.668 447.317C380.01 446.952 382.83 448.559 382.949 448.627C383.019 448.667 383.056 448.746 383.043 448.824C383.03 448.903 382.97 448.964 382.891 448.981C382.376 449.083 381.382 449.207 380.416 449.207ZM379.138 447.642C379.004 447.642 378.879 447.656 378.768 447.686C378.593 447.735 378.47 447.821 378.395 447.954C378.26 448.191 378.308 448.309 378.358 448.377C378.733 448.899 380.772 448.91 382.272 448.699C381.523 448.313 380.08 447.642 379.138 447.642Z" fill="#407BFF"/>
<path d="M382.854 448.984C382.828 448.984 382.801 448.979 382.776 448.968C381.803 448.531 379.874 446.787 380.021 445.875C380.055 445.661 380.208 445.394 380.733 445.341C381.122 445.302 381.479 445.411 381.792 445.668C382.819 446.51 383.036 448.683 383.044 448.776C383.05 448.844 383.02 448.91 382.965 448.949C382.932 448.972 382.893 448.984 382.854 448.984ZM380.886 445.714C380.849 445.714 380.81 445.717 380.772 445.72C380.428 445.755 380.406 445.89 380.399 445.935C380.31 446.482 381.621 447.853 382.614 448.451C382.51 447.816 382.223 446.516 381.549 445.964C381.346 445.797 381.128 445.714 380.886 445.714Z" fill="#407BFF"/>
<path d="M452.05 428.511L458.598 422.247C458.837 422.018 459.201 421.987 459.476 422.17L465.583 426.25C466.216 426.673 466.28 427.586 465.721 428.104C463.397 430.251 462.158 431.179 459.278 433.934C457.506 435.628 452.206 441.4 449.759 443.741C447.367 446.031 444.679 443.967 445.472 442.79C449.024 437.512 451.245 432.443 451.447 429.775C451.483 429.294 451.702 428.845 452.05 428.511Z" fill="#263238"/>
<path d="M383.71 447.859H392.52C392.849 447.859 393.134 448.088 393.206 448.41L394.799 455.58C394.964 456.323 394.399 457.028 393.638 457.015C390.461 456.961 385.869 456.775 381.876 456.775C377.206 456.775 373.173 457.029 367.696 457.029C364.384 457.029 363.465 453.682 364.851 453.379C371.161 451.998 376.314 451.85 381.767 448.488C382.36 448.122 383.014 447.859 383.71 447.859Z" fill="#263238"/>
<path d="M372.198 189.98C368.997 194.696 365.689 199.109 362.129 203.475C358.576 207.817 354.833 212.046 350.707 216.074L349.119 217.57L348.723 217.943L348.439 218.201L348.035 218.549C347.492 218.983 346.931 219.361 346.382 219.657C344.158 220.859 342.172 221.164 340.395 221.332C336.841 221.609 333.823 221.131 330.889 220.549C325.056 219.289 319.794 217.328 314.584 214.818L316.594 209.105C321.771 210.07 327.152 210.934 332.174 211.231C334.662 211.372 337.158 211.332 339.056 210.943C339.986 210.758 340.724 210.411 340.881 210.234C340.928 210.192 340.922 210.165 340.908 210.165C340.899 210.164 340.891 210.166 340.885 210.168C340.887 210.164 340.865 210.186 340.889 210.159L340.971 210.069L341.296 209.71L342.596 208.28C346.027 204.369 349.351 200.201 352.582 195.936C355.817 191.7 359.044 187.307 362.13 183.043L372.198 189.98Z" fill="#B55B52"/>
<path d="M416.314 173.477C423.874 175.211 432.545 195.823 432.545 195.823L417.361 206.23C417.361 206.23 411.608 198.182 407.332 189.179C402.851 179.745 408.584 171.705 416.314 173.477Z" fill="#407BFF"/>
<path opacity="0.3" d="M410.897 186.62L418.078 205.735L417.364 206.23C417.364 206.23 414.257 201.87 410.897 195.985V186.62Z" fill="black"/>
<path d="M371.124 173.892C371.124 173.892 362.539 183.59 370.646 243.612C383.646 243.612 407.464 243.612 413.79 243.612C414.088 236.989 409.926 204.681 416.313 173.476C416.313 173.476 408.918 171.992 401.87 171.652C396.357 171.387 388.377 171.211 383.53 171.654C377.142 172.237 371.124 173.892 371.124 173.892Z" fill="#407BFF"/>
<path opacity="0.3" d="M375.915 191.245C375.772 191.421 374.828 201.16 367.394 209.713C367.218 205.849 367.153 202.379 367.164 199.271L375.915 191.245Z" fill="black"/>
<path d="M379.635 180.432C380.699 188.07 365.649 207.581 365.649 207.581L350.528 197.173C350.528 197.173 354.72 186.421 361.783 179.375C369.847 171.33 378.477 172.119 379.635 180.432Z" fill="#407BFF"/>
<path d="M317.672 209.685L311.758 203.565L305.445 211.707C305.445 211.707 310.25 216.347 315.976 215.036L317.672 209.685Z" fill="#B55B52"/>
<path d="M303.626 200.196L300.923 208.742L305.445 211.706L311.758 203.564L303.626 200.196Z" fill="#B55B52"/>
<path d="M400.757 142.122C400.266 150.112 400.385 154.814 396.349 158.915C390.279 165.083 380.416 161.425 378.509 153.449C376.793 146.27 377.884 134.408 385.705 131.229C393.411 128.096 401.248 134.132 400.757 142.122Z" fill="#B55B52"/>
<path d="M407.718 125.446C410.183 127.714 409.136 130.235 407.855 130.708C411.836 131.532 412.424 134.704 410.327 141.398C408.319 147.809 403.478 156.406 397.431 156.933C388.342 157.725 385.681 148.256 385.621 138.857C380.475 139.167 382.694 134.609 376.386 135.666C370.934 136.578 372.953 132.292 368.292 130.427C362.882 128.262 363.969 119.94 369.015 122.323C369.015 122.323 366.672 123.866 369.4 125.308C372.129 126.75 371.863 123.413 377.249 123.009C382.633 122.604 383.264 127.216 389.568 124.44C397.506 120.944 402.673 120.805 407.718 125.446Z" fill="#263238"/>
<path d="M404.692 130.633C404.692 130.633 405.723 128.733 408.19 129.258C410.658 129.784 410.865 130.87 412.413 130.729C413.961 130.588 413.399 132.237 413.399 132.237C413.399 132.237 412.983 130.994 411.114 131.685C409.247 132.377 408.029 130.681 407.226 131.443C406.423 132.202 404.692 130.633 404.692 130.633Z" fill="#263238"/>
<path d="M389.926 144.295C389.578 146.362 388.402 148.217 387.102 149.373C385.147 151.111 383.451 149.717 383.393 147.337C383.34 145.195 384.296 141.71 386.548 140.878C388.766 140.056 390.324 141.93 389.926 144.295Z" fill="#B55B52"/>
<path d="M385.951 243.613C385.951 243.613 395.105 305.257 400.131 328.351C405.634 353.642 443.892 420.802 443.892 420.802L457.939 416.225C457.939 416.225 427.47 355.683 424.33 330.644C420.922 303.469 413.79 243.613 413.79 243.613H385.951Z" fill="#263238"/>
<path d="M439.962 416.357C439.902 416.377 443.17 421.278 443.17 421.278L458.975 416.129L457.116 411.41L439.962 416.357Z" fill="#407BFF"/>
<path opacity="0.3" d="M391.737 265.577C402.322 267.652 401.202 307.125 399.928 327.427C396.875 313.076 392.407 285.461 389.354 265.862C390.057 265.511 390.847 265.401 391.737 265.577Z" fill="black"/>
<path d="M370.646 243.613C370.646 243.613 369.535 303.923 370.413 328.522C371.325 354.107 380.262 437.884 380.262 437.884H393.926C393.926 437.884 394.428 355.603 395.035 330.475C395.698 303.081 399.006 243.614 399.006 243.614H370.646V243.613Z" fill="#263238"/>
<path d="M377.633 432.439C377.57 432.439 378.404 438.113 378.404 438.113H395.025L395.474 433.05L377.633 432.439Z" fill="#407BFF"/>
</svg>
