<svg width="403" height="115" viewBox="0 0 403 115" fill="none" xmlns="http://www.w3.org/2000/svg">
<path d="M93.944 51.064C96.632 51.064 98.68 51.7893 100.088 53.24C101.539 54.6907 102.264 56.824 102.264 59.64V83H96.888V61.176C96.8453 59.256 96.4613 57.8693 95.736 57.016C95.0107 56.12 93.7733 55.672 92.024 55.672C90.9147 55.672 89.848 55.864 88.824 56.248C87.8427 56.5893 86.7547 57.144 85.56 57.912C84.3653 58.68 82.9147 59.6827 81.208 60.92L80.888 57.08C83.1493 55.0747 85.3467 53.5813 87.48 52.6C89.6133 51.576 91.768 51.064 93.944 51.064ZM60.472 51.832L60.856 57.784L61.432 58.744V83H55.992V51.832H60.472ZM73.528 51.064C76.1733 51.064 78.2 51.7893 79.608 53.24C81.016 54.648 81.7413 56.7813 81.784 59.64V83H76.536V61.176C76.536 59.1707 76.1307 57.7627 75.32 56.952C74.5093 56.0987 73.2933 55.672 71.672 55.672C70.6053 55.672 69.56 55.8427 68.536 56.184C67.5547 56.5253 66.4453 57.08 65.208 57.848C64.0133 58.616 62.5413 59.64 60.792 60.92L60.408 57.08C62.6693 55.0747 64.8667 53.5813 67 52.6C69.1333 51.576 71.3093 51.064 73.528 51.064ZM126.775 51.064C129.079 51.064 131.02 51.384 132.599 52.024C134.22 52.6213 135.436 53.6453 136.247 55.096C137.057 56.5467 137.463 58.5307 137.463 61.048V83H133.175L132.343 76.216L131.959 75.512V61.048C131.959 59.128 131.511 57.7627 130.615 56.952C129.761 56.0987 128.097 55.672 125.623 55.672C124.001 55.672 121.953 55.7573 119.479 55.928C117.047 56.0987 114.636 56.2907 112.247 56.504L111.735 52.472C113.185 52.216 114.764 51.9813 116.47 51.768C118.22 51.5547 119.991 51.384 121.783 51.256C123.575 51.128 125.239 51.064 126.775 51.064ZM134.903 63.8L134.839 67.896L119.927 67.96C118.433 68.0027 117.388 68.408 116.791 69.176C116.193 69.9013 115.895 70.9253 115.895 72.248V74.232C115.895 75.8533 116.279 77.048 117.047 77.816C117.815 78.5413 119.052 78.904 120.759 78.904C121.953 78.904 123.297 78.6907 124.791 78.264C126.327 77.7947 127.863 77.0907 129.399 76.152C130.935 75.2133 132.343 74.0187 133.623 72.568V76.6C133.153 77.1973 132.471 77.9013 131.575 78.712C130.721 79.48 129.676 80.248 128.439 81.016C127.244 81.7413 125.9 82.36 124.407 82.872C122.956 83.3413 121.377 83.576 119.671 83.576C117.836 83.576 116.215 83.256 114.807 82.616C113.399 81.9333 112.289 80.952 111.479 79.672C110.711 78.3493 110.327 76.7493 110.327 74.872V71.48C110.327 69.048 111.073 67.1707 112.567 65.848C114.103 64.4827 116.236 63.8 118.967 63.8H134.903ZM151.404 51.832L152.108 57.784L152.62 58.744V83H147.18V51.832H151.404ZM166.7 51.064L166.06 56.184H164.268C162.433 56.184 160.598 56.568 158.764 57.336C156.929 58.0613 154.689 59.1067 152.044 60.472L151.595 57.08C153.9 55.2027 156.204 53.7307 158.508 52.664C160.854 51.5973 163.116 51.064 165.292 51.064H166.7ZM180.675 42.616V74.424C180.675 75.9173 180.995 76.984 181.635 77.624C182.275 78.264 183.363 78.584 184.899 78.584H189.635L190.275 82.744C189.592 82.9147 188.803 83.064 187.907 83.192C187.011 83.32 186.136 83.4053 185.283 83.448C184.43 83.5333 183.747 83.576 183.235 83.576C180.632 83.576 178.648 82.8507 177.283 81.4C175.918 79.9493 175.235 77.8587 175.235 75.128V42.616H180.675ZM190.595 51.832V56.12H169.603V52.152L175.747 51.832H190.595ZM239.546 38.84C241.082 38.84 241.85 39.6293 241.85 41.208L243.706 83H238.074L236.474 43.512H235.13L225.274 76.088C224.933 77.368 224.122 78.008 222.842 78.008H217.786C216.463 78.008 215.61 77.368 215.226 76.088L205.37 43.512H204.09L202.554 83H196.922L198.65 41.208C198.735 39.6293 199.525 38.84 201.018 38.84H207.418C208.613 38.84 209.402 39.48 209.786 40.76L218.042 67.704C218.383 68.6853 218.661 69.6667 218.874 70.648C219.13 71.6293 219.407 72.632 219.706 73.656H220.858C221.157 72.632 221.434 71.6293 221.69 70.648C221.946 69.6667 222.223 68.6427 222.522 67.576L230.778 40.76C231.119 39.48 231.93 38.84 233.21 38.84H239.546ZM266.551 51.064C270.135 51.064 272.994 51.5973 275.127 52.664C277.303 53.7307 278.86 55.48 279.799 57.912C280.738 60.3013 281.207 63.48 281.207 67.448C281.207 71.416 280.738 74.616 279.799 77.048C278.86 79.4373 277.303 81.1653 275.127 82.232C272.994 83.2987 270.135 83.832 266.551 83.832C263.01 83.832 260.151 83.2987 257.975 82.232C255.842 81.1653 254.284 79.4373 253.303 77.048C252.364 74.616 251.895 71.416 251.895 67.448C251.895 63.48 252.364 60.3013 253.303 57.912C254.284 55.48 255.842 53.7307 257.975 52.664C260.151 51.5973 263.01 51.064 266.551 51.064ZM266.551 55.672C264.29 55.672 262.498 56.0347 261.175 56.76C259.895 57.4427 258.978 58.6373 258.423 60.344C257.868 62.0507 257.591 64.4187 257.591 67.448C257.591 70.4773 257.868 72.8453 258.423 74.552C258.978 76.2587 259.895 77.4747 261.175 78.2C262.498 78.8827 264.29 79.224 266.551 79.224C268.812 79.224 270.604 78.8827 271.927 78.2C273.25 77.4747 274.188 76.2587 274.743 74.552C275.298 72.8453 275.575 70.4773 275.575 67.448C275.575 64.4187 275.298 62.0507 274.743 60.344C274.188 58.6373 273.25 57.4427 271.927 56.76C270.604 56.0347 268.812 55.672 266.551 55.672ZM308.686 51.064C314.318 51.064 317.134 53.9227 317.134 59.64V83H311.694V61.176C311.694 59.0853 311.353 57.656 310.67 56.888C309.987 56.0773 308.835 55.672 307.214 55.672C305.294 55.672 303.374 56.1413 301.454 57.08C299.534 58.0187 297.251 59.2987 294.606 60.92L294.35 57.016C296.782 55.1387 299.193 53.688 301.582 52.664C303.971 51.5973 306.339 51.064 308.686 51.064ZM294.35 51.832L294.798 57.784L295.182 58.744V83H289.742V51.832H294.35ZM339.73 51.064C344.423 51.064 347.815 51.9173 349.906 53.624C352.039 55.3307 353.106 57.8693 353.106 61.24C353.148 64.0133 352.572 66.1893 351.378 67.768C350.183 69.304 348.284 70.072 345.682 70.072H327.506V65.848H344.274C345.682 65.848 346.599 65.3787 347.026 64.44C347.452 63.4587 347.666 62.392 347.666 61.24C347.623 59.2347 347.026 57.8053 345.874 56.952C344.722 56.0987 342.759 55.672 339.986 55.672C337.724 55.672 335.932 56.0133 334.61 56.696C333.33 57.336 332.412 58.488 331.858 60.152C331.346 61.7733 331.09 64.056 331.09 67C331.09 70.328 331.41 72.8667 332.05 74.616C332.732 76.3653 333.799 77.56 335.25 78.2C336.7 78.84 338.62 79.16 341.01 79.16C342.674 79.16 344.487 79.096 346.45 78.968C348.455 78.7973 350.247 78.6053 351.826 78.392L352.402 82.04C351.42 82.424 350.204 82.744 348.754 83C347.346 83.256 345.874 83.448 344.338 83.576C342.844 83.704 341.5 83.768 340.306 83.768C336.722 83.768 333.842 83.2347 331.666 82.168C329.49 81.0587 327.89 79.3093 326.866 76.92C325.884 74.488 325.394 71.288 325.394 67.32C325.394 63.224 325.884 60.0027 326.866 57.656C327.89 55.2667 329.447 53.5813 331.538 52.6C333.671 51.576 336.402 51.064 339.73 51.064ZM388.765 51.832L376.285 84.728C375.773 86.0933 375.133 87.4373 374.365 88.76C373.597 90.0827 372.658 91.2773 371.549 92.344C370.482 93.4533 369.202 94.3493 367.709 95.032C366.258 95.7147 364.573 96.0987 362.653 96.184L362.141 92.6C364.658 91.7893 366.6 90.7013 367.965 89.336C369.33 87.9707 370.418 86.3067 371.229 84.344L372.765 80.632C373.106 79.7787 373.448 78.84 373.789 77.816C374.13 76.792 374.45 75.8747 374.749 75.064L382.877 51.832H388.765ZM363.101 51.832L371.357 75.064C371.57 75.704 371.784 76.344 371.997 76.984C372.21 77.5813 372.381 78.2 372.509 78.84H373.981L372.189 83H370.525C370.098 83 369.693 82.872 369.309 82.616C368.968 82.36 368.733 82.0187 368.605 81.592L357.277 51.832H363.101Z" fill="white"/>
<path d="M396.13 75.448C396.898 75.448 397.431 75.5973 397.73 75.896C398.028 76.1947 398.178 76.728 398.178 77.496V80.952C398.178 81.72 398.028 82.2533 397.73 82.552C397.431 82.8507 396.898 83 396.13 83H394.338C393.612 83 393.079 82.8507 392.738 82.552C392.439 82.2533 392.29 81.72 392.29 80.952V77.496C392.29 76.728 392.439 76.1947 392.738 75.896C393.079 75.5973 393.612 75.448 394.338 75.448H396.13Z" fill="#407BFF"/>
<path d="M26.976 28.608C30.112 28.672 33.344 28.832 36.672 29.088C40 29.344 43.328 29.824 46.656 30.528L46.08 36.672C43.328 36.544 40.288 36.448 36.96 36.384C33.632 36.256 30.432 36.192 27.36 36.192C24.992 36.192 22.944 36.288 21.216 36.48C19.552 36.608 18.176 36.992 17.088 37.632C16 38.208 15.2 39.2 14.688 40.608C14.24 41.952 14.016 43.84 14.016 46.272C14.016 49.92 14.688 52.48 16.032 53.952C17.376 55.36 19.52 56.416 22.464 57.12L35.808 60.48C40.928 61.696 44.448 63.84 46.368 66.912C48.288 69.92 49.248 73.984 49.248 79.104C49.248 82.944 48.8 86.048 47.904 88.416C47.072 90.784 45.76 92.608 43.968 93.888C42.176 95.104 39.872 95.936 37.056 96.384C34.24 96.896 30.88 97.152 26.976 97.152C24.8 97.152 21.952 97.056 18.432 96.864C14.976 96.672 10.976 96.16 6.432 95.328L7.008 88.896C10.784 88.96 13.824 89.056 16.128 89.184C18.432 89.248 20.416 89.28 22.08 89.28C23.744 89.28 25.472 89.28 27.264 89.28C30.656 89.28 33.312 89.024 35.232 88.512C37.216 88 38.592 87.008 39.36 85.536C40.192 84.064 40.608 81.856 40.608 78.912C40.608 76.352 40.32 74.368 39.744 72.96C39.168 71.552 38.272 70.496 37.056 69.792C35.84 69.024 34.24 68.416 32.256 67.968L18.624 64.512C13.824 63.296 10.432 61.184 8.448 58.176C6.464 55.168 5.472 51.136 5.472 46.08C5.472 42.24 5.888 39.168 6.72 36.864C7.616 34.496 8.928 32.736 10.656 31.584C12.448 30.368 14.688 29.568 17.376 29.184C20.128 28.8 23.328 28.608 26.976 28.608ZM25.056 62.112L29.376 62.304L25.92 108.192H21.504L25.056 62.112ZM33.12 19.296L29.952 62.304L25.536 62.112L28.8 19.296H33.12Z" fill="#04C1FB"/>
</svg>
