<svg width="27" height="27" viewBox="0 0 27 27" fill="none" xmlns="http://www.w3.org/2000/svg">
<path d="M13.482 5.90625C9.37188 5.90625 5.15577 8.2851 1.83667 13.0428C1.74193 13.1801 1.69001 13.3424 1.68748 13.5092C1.68494 13.676 1.7319 13.8398 1.82243 13.9799C4.37266 17.9719 8.53235 21.0938 13.482 21.0938C18.3779 21.0938 22.623 17.9624 25.178 13.9614C25.2664 13.8241 25.3134 13.6642 25.3134 13.5008C25.3134 13.3374 25.2664 13.1775 25.178 13.0402C22.6172 9.08508 18.3409 5.90625 13.482 5.90625Z" stroke="white" stroke-width="1.625" stroke-linecap="round" stroke-linejoin="round"/>
<path d="M13.5 17.7188C15.83 17.7188 17.7188 15.83 17.7188 13.5C17.7188 11.17 15.83 9.28125 13.5 9.28125C11.17 9.28125 9.28125 11.17 9.28125 13.5C9.28125 15.83 11.17 17.7188 13.5 17.7188Z" stroke="white" stroke-width="1.625" stroke-miterlimit="10"/>
</svg>
